<?xml version="1.0" encoding="utf-8"?>
<svg xmlns="http://www.w3.org/2000/svg" viewBox="0 0 1600 1200" width="1600" height="1200" style="background-color: #0b0a10; color: #ffffff;">
    <defs>
        <style>
            .title { font-family: 'Cinzel', 'Georgia', serif; font-size: 28px; fill: #d4af37; font-weight: bold; letter-spacing: 2px; }
            .subtitle { font-family: 'Cinzel', 'Georgia', serif; font-size: 16px; fill: #8a8aa3; letter-spacing: 1px; }
            .section-head { font-family: 'Cinzel', 'Georgia', serif; font-size: 20px; fill: #ff2a4b; letter-spacing: 2px; font-weight: bold; }
            .label { font-family: sans-serif; font-size: 11px; fill: #666; text-anchor: middle; }
            .ui-element { color: #ffffff; transition: all 0.3s ease; }
            .ui-element:hover { color: #ff2a4b; filter: drop-shadow(0 0 8px rgba(255,42,75,0.8)); }
        </style>

        <!-- GLOW FILTERS -->
        <filter id="glow-red" x="-20%" y="-20%" width="140%" height="140%">
            <feGaussianBlur stdDeviation="3" result="blur" />
            <feMerge>
                <feMergeNode in="blur" />
                <feMergeNode in="SourceGraphic" />
            </feMerge>
        </filter>
    </defs>

    <!-- Background Grid Effect -->
    <rect width="1600" height="1200" fill="#09080e"/>
    <circle cx="800" cy="600" r="700" fill="#1d0d24" opacity="0.4"/>

    <!-- HEADER -->
    <text x="800" y="50" class="title" text-anchor="middle">DARK FANTASY UI KIT</text>
    <text x="800" y="75" class="subtitle" text-anchor="middle">125 High Quality Vector Game Elements</text>
    <line x1="200" y1="90" x2="1400" y2="90" stroke="#332244" stroke-width="2"/>

    <!-- 1. BUTTONS SECTION -->
    <text x="50" y="125" class="section-head">BUTTONS &amp; TABS</text>
    
    <!-- Row 1 Buttons -->
    <g transform="translate(50, 140)" class="ui-element" id="btn-1">
        <path d="M 15 2 L 185 2 L 198 15 L 198 29 L 185 42 L 15 42 L 2 29 L 2 15 Z" fill="none" stroke="currentColor" stroke-width="2"/>
        <path d="M 18 6 L 182 6 L 194 18 L 194 26 L 182 38 L 18 38 L 6 26 L 6 18 Z" fill="none" stroke="currentColor" stroke-width="1" stroke-dasharray="4,2"/>
        <path d="M 0 22 L 8 16 L 8 28 Z M 200 22 L 192 16 L 192 28 Z" fill="currentColor"/>
        <text x="100" y="26" font-family="Cinzel, serif" font-size="13" fill="currentColor" text-anchor="middle" letter-spacing="1">BUTTON TEXT</text>
    </g>

    <g transform="translate(280, 140)" class="ui-element" id="btn-2">
        <path d="M 22 2 L 178 2 C 190 2 198 10 198 22 C 198 34 190 42 178 42 L 22 42 C 10 42 2 34 2 22 C 2 10 10 2 22 2 Z" fill="none" stroke="currentColor" stroke-width="2"/>
        <circle cx="10" cy="22" r="3" fill="currentColor"/>
        <circle cx="190" cy="22" r="3" fill="currentColor"/>
        <text x="100" y="26" font-family="Cinzel, serif" font-size="13" fill="currentColor" text-anchor="middle" letter-spacing="1">BUTTON TEXT</text>
    </g>

    <g transform="translate(510, 140)" class="ui-element" id="btn-3">
        <path d="M 20 2 C 5 2 2 15 2 22 C 2 29 5 42 20 42 L 180 42 C 195 42 198 29 198 22 C 198 15 195 2 180 2 Z" fill="none" stroke="currentColor" stroke-width="2"/>
        <polygon points="100,2 96,6 104,6" fill="currentColor"/>
        <polygon points="100,42 96,38 104,38" fill="currentColor"/>
        <text x="100" y="26" font-family="Cinzel, serif" font-size="13" fill="currentColor" text-anchor="middle" letter-spacing="1">BUTTON TEXT</text>
    </g>

    <g transform="translate(740, 140)" class="ui-element" id="btn-4">
        <rect x="2" y="2" width="196" height="40" fill="none" stroke="currentColor" stroke-width="2"/>
        <rect x="6" y="6" width="188" height="32" fill="none" stroke="currentColor" stroke-width="1"/>
        <path d="M 2 10 L 10 2 M 198 10 L 190 2 M 2 34 L 10 42 M 198 34 L 190 42" stroke="currentColor" stroke-width="2"/>
        <text x="100" y="26" font-family="Cinzel, serif" font-size="13" fill="currentColor" text-anchor="middle" letter-spacing="1">BUTTON TEXT</text>
    </g>

    <g transform="translate(970, 140)" class="ui-element" id="btn-5">
        <path d="M 2 2 L 180 2 L 198 22 L 180 42 L 2 42 Z" fill="none" stroke="currentColor" stroke-width="2"/>
        <text x="90" y="26" font-family="Cinzel, serif" font-size="13" fill="currentColor" text-anchor="middle" letter-spacing="1">BUTTON TEXT</text>
    </g>

    <g transform="translate(1200, 140)" class="ui-element" id="btn-6">
        <path d="M 12 2 L 188 2 L 198 12 L 198 32 L 188 42 L 12 42 L 2 32 L 2 12 Z" fill="none" stroke="currentColor" stroke-width="2"/>
        <text x="100" y="26" font-family="Cinzel, serif" font-size="13" fill="currentColor" text-anchor="middle" letter-spacing="1">BUTTON TEXT</text>
    </g>

    <!-- 2. MAGIC SIGILS & CIRCLES SECTION -->
    <text x="50" y="230" class="section-head">MAGIC SIGILS &amp; ARCANE CIRCLES</text>

    <g transform="translate(50, 250)" class="ui-element" id="sigil-1">
        <circle cx="60" cy="60" r="56" fill="none" stroke="currentColor" stroke-width="2"/>
        <circle cx="60" cy="60" r="46" fill="none" stroke="currentColor" stroke-width="1"/>
        <polygon points="60,8 102,88 18,88" fill="none" stroke="currentColor" stroke-width="1.5"/>
        <polygon points="60,112 102,32 18,32" fill="none" stroke="currentColor" stroke-width="1.5"/>
        <circle cx="60" cy="60" r="14" fill="none" stroke="currentColor" stroke-width="1.5"/>
    </g>

    <g transform="translate(200, 250)" class="ui-element" id="sigil-2">
        <circle cx="60" cy="60" r="56" fill="none" stroke="currentColor" stroke-width="2"/>
        <rect x="25" y="25" width="70" height="70" fill="none" stroke="currentColor" stroke-width="1.5" transform="rotate(45 60 60)"/>
        <line x1="10" y1="10" x2="110" y2="110" stroke="currentColor" stroke-width="1"/>
        <line x1="110" y1="10" x2="10" y2="110" stroke="currentColor" stroke-width="1"/>
        <circle cx="60" cy="60" r="24" fill="none" stroke="currentColor" stroke-width="2"/>
    </g>

    <g transform="translate(350, 250)" class="ui-element" id="sigil-3">
        <circle cx="60" cy="60" r="56" fill="none" stroke="currentColor" stroke-width="2"/>
        <circle cx="60" cy="25" r="12" fill="none" stroke="currentColor" stroke-width="1.5"/>
        <circle cx="60" cy="95" r="12" fill="none" stroke="currentColor" stroke-width="1.5"/>
        <circle cx="25" cy="60" r="12" fill="none" stroke="currentColor" stroke-width="1.5"/>
        <circle cx="95" cy="60" r="12" fill="none" stroke="currentColor" stroke-width="1.5"/>
        <polygon points="60,35 85,60 60,85 35,60" fill="none" stroke="currentColor" stroke-width="1.5"/>
    </g>

    <g transform="translate(500, 250)" class="ui-element" id="sigil-4">
        <circle cx="60" cy="60" r="56" fill="none" stroke="currentColor" stroke-width="2"/>
        <polygon points="60,10 105,95 15,95" fill="none" stroke="currentColor" stroke-width="1.5"/>
        <circle cx="60" cy="60" r="28" fill="none" stroke="currentColor" stroke-width="1" stroke-dasharray="4,2"/>
        <path d="M 60 0 L 60 120 M 0 60 L 120 60" stroke="currentColor" stroke-width="1"/>
    </g>

    <g transform="translate(650, 250)" class="ui-element" id="circ-1">
        <circle cx="60" cy="60" r="54" fill="none" stroke="currentColor" stroke-width="2"/>
        <circle cx="60" cy="60" r="46" fill="none" stroke="currentColor" stroke-width="1" stroke-dasharray="6,3"/>
        <polygon points="60,2 54,10 66,10" fill="currentColor"/>
        <polygon points="60,118 54,110 66,110" fill="currentColor"/>
        <polygon points="2,60 10,54 10,66" fill="currentColor"/>
        <polygon points="118,60 110,54 110,66" fill="currentColor"/>
    </g>

    <g transform="translate(800, 250)" class="ui-element" id="circ-2">
        <circle cx="60" cy="60" r="54" fill="none" stroke="currentColor" stroke-width="2.5"/>
        <circle cx="60" cy="60" r="48" fill="none" stroke="currentColor" stroke-width="1"/>
        <circle cx="60" cy="60" r="40" fill="none" stroke="currentColor" stroke-width="1.5"/>
    </g>

    <!-- 3. ICONS SECTION -->
    <text x="50" y="410" class="section-head">GAME ICONS</text>
    
    <g transform="translate(50, 430)" class="ui-element" id="icon-shield">
        <rect x="0" y="0" width="50" height="50" fill="none" stroke="#221e33" stroke-width="1"/>
        <path d="M 25 6 L 42 12 V 27 C 42 37 25 44 25 44 C 25 44 8 37 8 27 V 12 Z" fill="none" stroke="currentColor" stroke-width="2.5"/>
        <path d="M 25 12 L 36 16 V 25 C 36 32 25 37 25 37 C 25 37 14 32 14 25 V 16 Z" fill="currentColor"/>
    </g>

    <g transform="translate(120, 430)" class="ui-element" id="icon-swords">
        <rect x="0" y="0" width="50" height="50" fill="none" stroke="#221e33" stroke-width="1"/>
        <path d="M 8 8 L 42 42 M 42 8 L 8 42" stroke="currentColor" stroke-width="3.5" stroke-linecap="round"/>
        <circle cx="25" cy="25" r="4" fill="currentColor"/>
    </g>

    <g transform="translate(190, 430)" class="ui-element" id="icon-skull">
        <rect x="0" y="0" width="50" height="50" fill="none" stroke="#221e33" stroke-width="1"/>
        <path d="M 25 6 C 14 6 8 14 8 25 C 8 31 12 36 15 38 V 44 H 35 V 38 C 38 36 42 31 42 25 C 42 14 36 6 25 6 Z" fill="none" stroke="currentColor" stroke-width="2.5"/>
        <circle cx="17" cy="23" r="4" fill="currentColor"/>
        <circle cx="33" cy="23" r="4" fill="currentColor"/>
        <path d="M 20 39 V 44 M 25 39 V 44 M 30 39 V 44" stroke="currentColor" stroke-width="2"/>
    </g>

    <g transform="translate(260, 430)" class="ui-element" id="icon-axes">
        <rect x="0" y="0" width="50" height="50" fill="none" stroke="#221e33" stroke-width="1"/>
        <line x1="8" y1="42" x2="42" y2="8" stroke="currentColor" stroke-width="3"/>
        <path d="M 28 8 C 36 5 42 12 42 18 C 36 21 28 15 28 8 Z M 14 28 C 8 35 15 42 21 42 C 24 35 18 28 14 28 Z" fill="currentColor"/>
    </g>

    <g transform="translate(330, 430)" class="ui-element" id="icon-scroll">
        <rect x="0" y="0" width="50" height="50" fill="none" stroke="#221e33" stroke-width="1"/>
        <path d="M 10 12 C 6 12 6 6 12 6 H 38 C 44 6 44 12 40 15 V 38 C 44 38 44 44 38 44 H 12 C 6 44 6 38 10 35 Z" fill="none" stroke="currentColor" stroke-width="2.5"/>
        <line x1="16" y1="17" x2="34" y2="17" stroke="currentColor" stroke-width="2"/>
        <line x1="16" y1="25" x2="34" y2="25" stroke="currentColor" stroke-width="2"/>
        <line x1="16" y1="33" x2="26" y2="33" stroke="currentColor" stroke-width="2"/>
    </g>

    <g transform="translate(400, 430)" class="ui-element" id="icon-potion">
        <rect x="0" y="0" width="50" height="50" fill="none" stroke="#221e33" stroke-width="1"/>
        <path d="M 20 6 H 30 V 16 L 41 34 C 44 40 39 45 32 45 H 18 C 11 45 6 40 9 34 L 20 16 Z" fill="none" stroke="currentColor" stroke-width="2.5"/>
        <path d="M 13 32 C 19 29 31 35 37 32 L 38 35 C 41 40 37 43 32 43 H 18 C 13 43 9 40 11 35 Z" fill="currentColor"/>
    </g>

    <g transform="translate(470, 430)" class="ui-element" id="icon-helm">
        <rect x="0" y="0" width="50" height="50" fill="none" stroke="#221e33" stroke-width="1"/>
        <path d="M 25 6 C 12 6 9 18 9 27 V 40 H 41 V 27 C 41 18 38 6 25 6 Z" fill="none" stroke="currentColor" stroke-width="2.5"/>
        <path d="M 12 22 H 38 M 25 22 V 40" stroke="currentColor" stroke-width="2.5"/>
    </g>

    <g transform="translate(540, 430)" class="ui-element" id="icon-crown">
        <rect x="0" y="0" width="50" height="50" fill="none" stroke="#221e33" stroke-width="1"/>
        <polygon points="6,38 9,15 18,27 25,9 32,27 41,15 44,38" fill="none" stroke="currentColor" stroke-width="2.5"/>
        <rect x="6" y="38" width="38" height="6" fill="currentColor"/>
    </g>

    <g transform="translate(610, 430)" class="ui-element" id="icon-flame">
        <rect x="0" y="0" width="50" height="50" fill="none" stroke="#221e33" stroke-width="1"/>
        <path d="M 25 5 C 25 5 38 16 38 29 C 38 38 32 44 25 44 C 18 44 12 38 12 29 C 12 19 20 13 20 13 C 20 13 18 19 21 22 C 25 19 25 5 25 5 Z" fill="currentColor"/>
    </g>

    <g transform="translate(680, 430)" class="ui-element" id="icon-heart">
        <rect x="0" y="0" width="50" height="50" fill="none" stroke="#221e33" stroke-width="1"/>
        <path d="M 25 43 C 25 43 6 30 6 18 C 6 10 12 6 18 6 C 22 6 25 9 25 9 C 25 9 28 6 32 6 C 38 6 44 10 44 18 C 44 30 25 43 25 43 Z" fill="currentColor"/>
    </g>

    <!-- 4. DIVIDERS & LINES SECTION -->
    <text x="50" y="520" class="section-head">DIVIDERS &amp; ACCENTS</text>
    
    <g transform="translate(50, 540)" class="ui-element" id="div-1">
        <path d="M 0 15 L 300 15 M 400 15 L 700 15" stroke="currentColor" stroke-width="2"/>
        <polygon points="350,2 335,15 350,28 365,15" fill="currentColor"/>
        <polygon points="350,15 320,8 320,22" fill="currentColor"/>
        <polygon points="350,15 380,8 380,22" fill="currentColor"/>
    </g>

    <g transform="translate(800, 540)" class="ui-element" id="div-2">
        <path d="M 0 15 L 320 15 M 380 15 L 700 15" stroke="currentColor" stroke-width="2"/>
        <circle cx="350" cy="15" r="10" fill="none" stroke="currentColor" stroke-width="2"/>
        <circle cx="350" cy="15" r="4" fill="currentColor"/>
    </g>

    <!-- 5. PROGRESS BARS SECTION -->
    <text x="50" y="610" class="section-head">PROGRESS &amp; HP/MP BARS</text>

    <g transform="translate(50, 630)" class="ui-element" id="bar-1">
        <path d="M 12 2 L 488 2 L 498 16 L 488 30 L 12 30 L 2 16 Z" fill="none" stroke="currentColor" stroke-width="2.5"/>
        <rect x="20" y="7" width="340" height="16" fill="#ff2a4b" rx="2"/>
        <text x="250" y="20" font-family="Cinzel, serif" font-size="12" fill="#ffffff" text-anchor="middle" font-weight="bold">HP: 850 / 1000</text>
    </g>

    <g transform="translate(580, 630)" class="ui-element" id="bar-2">
        <path d="M 12 2 L 488 2 L 498 16 L 488 30 L 12 30 L 2 16 Z" fill="none" stroke="currentColor" stroke-width="2.5"/>
        <rect x="20" y="7" width="280" height="16" fill="#00d2ff" rx="2"/>
        <text x="250" y="20" font-family="Cinzel, serif" font-size="12" fill="#ffffff" text-anchor="middle" font-weight="bold">MP: 420 / 600</text>
    </g>

    <g transform="translate(1110, 630)" class="ui-element" id="bar-3">
        <path d="M 12 2 L 428 2 L 438 16 L 428 30 L 12 30 L 2 16 Z" fill="none" stroke="currentColor" stroke-width="2.5"/>
        <rect x="20" y="7" width="180" height="16" fill="#ffd700" rx="2"/>
        <text x="220" y="20" font-family="Cinzel, serif" font-size="12" fill="#ffffff" text-anchor="middle" font-weight="bold">XP: 18 / 100</text>
    </g>

    <!-- 6. WINDOWS & BANNERS SECTION -->
    <text x="50" y="710" class="section-head">FRAMES &amp; WINDOWS</text>

    <g transform="translate(50, 730)" class="ui-element" id="win-1">
        <rect x="10" y="10" width="360" height="240" fill="#0d0a14" stroke="currentColor" stroke-width="2.5"/>
        <rect x="18" y="18" width="344" height="224" fill="none" stroke="currentColor" stroke-width="1" stroke-dasharray="4,2"/>
        <path d="M 10 30 L 30 10 M 370 30 L 350 10 M 10 230 L 30 250 M 370 230 L 350 250" stroke="currentColor" stroke-width="2"/>
        <text x="190" y="45" font-family="Cinzel, serif" font-size="16" fill="#d4af37" text-anchor="middle" font-weight="bold">FRAME WINDOW</text>
    </g>

</svg>